<?xml version="1.0" encoding="UTF-8"?>
<svg width="512" height="444" viewBox="-.622 -.991 514 444" xmlns="http://www.w3.org/2000/svg">
<path d="m219.13 126.52h11.764v11.699h-11.764v-11.699z"/>
<path d="m242.66 126.52h11.76v11.699h-11.76v-11.699z"/>
<path d="m266.19 126.52h11.77v11.699h-11.77v-11.699z"/>
<path d="m513.26 133.66-14.216-3.533 7.552-12.496-31.472-31.276-12.55 7.497-3.546-14.138h-44.483l-3.555 14.142-12.549-7.501-16.869 16.765h-185.97v152.12h-17.646c-16.223 0-29.418 13.128-29.418 29.259v128.71c0 16.138 13.195 29.266 29.418 29.266h270.6c16.22 0 29.421-13.128 29.421-29.266v-190.82l28.628-28.462-7.552-12.494 14.216-3.528v-44.24zm-143.45-18.835-2.835 2.806 7.535 12.496-14.2 3.533v4.566h-61.259l-11.771 11.7h-79.919v-35.101h162.45zm-191.86 152.1h41.176c5.52 0 10.807 2.633 14.121 7.024l12.351 16.397h155.89c7.66 0 14.131 4.899 16.574 11.698h-257.76v-17.548c0-9.682 7.918-17.571 17.652-17.571zm0 163.83c-9.733 0-17.652-7.874-17.652-17.555v-99.46h258.84v99.46c0 6.581 2.198 12.667 5.895 17.555h-247.08zm270.6 0c-9.732 0-17.64-7.874-17.64-17.555v-105.31c0-16.131-13.195-29.249-29.42-29.249h-150l-8.826-11.716c-5.521-7.313-14.323-11.688-23.531-11.688h-11.764v-93.612h84.789l11.764-11.704h56.396v27.975l14.205 3.528-7.524 12.494 31.448 31.279 12.549-7.491 3.555 14.127h44.483l3.546-14.136 3.623 2.164v193.34c-1e-3 9.68-7.921 17.554-17.651 17.554zm52.948-262-11.467 2.849-3.144 1.199-2.737 6.665 7.624 12.63-18.455 18.363-12.689-7.582-7.185 2.904-3.602 14.349h-26.106l-2.868-11.408-1.189-3.131-6.714-2.713-12.705 7.582-18.459-18.363 7.633-12.63-2.966-7.141-14.39-3.572v-25.969l14.39-3.572 2.954-7.141-7.621-12.629 18.459-18.367 12.705 7.581 7.175-2.898 3.597-14.349h26.106l2.865 11.406 1.19 3.127 6.73 2.713 12.689-7.581 18.455 18.367-7.624 12.629 2.959 7.141 14.389 3.572v25.969z"/>
<path d="m436.8 114.82c-22.713 0-41.188 18.375-41.188 40.951 0 22.582 18.475 40.954 41.188 40.954 22.695 0 41.172-18.373 41.172-40.954 0-22.576-18.477-40.951-41.172-40.951zm0 70.204c-16.225 0-29.425-13.119-29.425-29.253 0-16.133 13.2-29.25 29.425-29.25 16.202 0 29.401 13.117 29.401 29.25 0 16.135-13.199 29.253-29.401 29.253z"/>
<path d="m172.07 278.64h11.765v11.706h-11.765v-11.706z"/>
<path d="M195.6,278.645h11.767v11.706H195.6V278.645z"/>
<path d="m219.13 278.64h11.764v11.706h-11.764v-11.706z"/>
<path d="m245.01 174.5-29.804 22.232 29.804 22.231 7.069-9.358-17.26-12.873 17.26-12.872-7.069-9.36z"/>
<path d="m368.56 230.67 17.239 12.876-17.239 12.869 7.05 9.358 29.809-22.228-29.809-22.242-7.05 9.367z"/>
<path d="m266.19 173.33h82.354v11.698h-82.354v-11.698z"/>
<path d="m266.19 196.73h82.354v11.704h-82.354v-11.704z"/>
<path d="m266.19 220.14h82.354v11.698h-82.354v-11.698z"/>
<path d="m266.19 243.54h58.825v11.699h-58.825v-11.699z"/>
<path d="m336.79 243.54h11.753v11.699h-11.753v-11.699z"/>
<path d="m309.5 347.5 29.862 24.754-29.862 24.75 7.523 9.001 40.718-33.751-40.717-33.754-7.524 9z"/>
<path d="m262.43 338.5-40.723 33.755 40.723 33.751 7.525-9.001-29.873-24.75 29.873-24.754-7.525-9.001z"/>
<path d="m272.19 417.62 23.467-93.592 11.419 2.825-23.48 93.59-11.406-2.823z"/>
<path d="m172.07 372.25h11.765v11.702h-11.765v-11.702z"/>
<path d="m172.07 348.85h11.765v11.707h-11.765v-11.707z"/>
<path d="m172.07 325.45h11.765v11.697h-11.765v-11.697z"/>
<path d="m395.61 383.96h11.763v11.706h-11.763v-11.706z"/>
<path d="m395.61 360.55h11.763v11.7h-11.763v-11.7z"/>
<path d="m395.61 407.36h11.763v11.699h-11.763v-11.699z"/>
<path d="m442.67 360.55h11.761v11.7h-11.761v-11.7z"/>
<path d="m442.67 407.36h11.761v11.699h-11.761v-11.699z"/>
<path d="m442.67 383.96h11.761v11.706h-11.761v-11.706z"/>
<path d="m436.8 138.22c-9.736 0-17.655 7.874-17.655 17.55 0 9.675 7.919 17.556 17.655 17.556 9.729 0 17.637-7.88 17.637-17.556 0-9.677-7.909-17.55-17.637-17.55zm0 23.404c-3.247 0-5.889-2.621-5.889-5.854 0-3.229 2.642-5.85 5.889-5.85 3.229 0 5.876 2.621 5.876 5.85 0 3.233-2.648 5.854-5.876 5.854z"/>
<rect x="6.989" y="69.111" width="363.26" height="296.2" enable-background="new    " fill="#fff" opacity=".5"/>
<path d="m40.266 21.064c-8.921 0-16.178 7.212-16.178 16.085 0 8.872 7.257 16.093 16.178 16.093 8.917 0 16.176-7.221 16.176-16.093-1e-3 -8.873-7.26-16.085-16.176-16.085zm0 21.223c-2.849 0-5.162-2.309-5.162-5.137 0-2.831 2.313-5.141 5.162-5.141 2.852 0 5.163 2.31 5.163 5.141 0 2.828-2.311 5.137-5.163 5.137z"/>
<path d="m81.48 21.064c-8.921 0-16.177 7.212-16.177 16.085 0 8.872 7.255 16.093 16.177 16.093 8.917 0 16.179-7.221 16.179-16.093 3e-3 -8.873-7.263-16.085-16.179-16.085zm0 21.223c-2.845 0-5.162-2.309-5.162-5.137 0-2.831 2.317-5.141 5.162-5.141 2.85 0 5.167 2.31 5.167 5.141 0 2.828-2.313 5.137-5.167 5.137z"/>
<path d="m122.7 21.064c-8.919 0-16.183 7.212-16.183 16.085 0 8.872 7.264 16.093 16.183 16.093 8.917 0 16.178-7.221 16.178-16.093-1e-3 -8.873-7.261-16.085-16.178-16.085zm0 21.223c-2.85 0-5.172-2.309-5.172-5.137 0-2.831 2.322-5.141 5.172-5.141 2.844 0 5.163 2.31 5.163 5.141-1e-3 2.828-2.313 5.137-5.163 5.137z"/>
<path d="m352.22 0h-327.96c-13.378 0-24.267 10.829-24.267 24.135v326.18c0 13.305 10.889 24.129 24.267 24.129h163.98c3.042 0 5.503-2.447 5.503-5.475 0-3.023-2.461-5.469-5.503-5.469h-163.98c-7.314 0-13.26-5.91-13.26-13.186v-275.7h354.47v275.71c0 7.275-5.943 13.186-13.257 13.186h-130c-3.045 0-5.512 2.445-5.512 5.469 0 3.027 2.47 5.475 5.512 5.475h130c13.379 0 24.273-10.824 24.273-24.129v-326.18c1e-3 -13.306-10.893-24.135-24.272-24.135zm13.256 63.656h-354.47v-39.521c0-7.273 5.95-13.187 13.26-13.187h327.96c7.313 0 13.257 5.914 13.257 13.187v39.521h-1e-3z"/>
<path d="m328.99 21.064h-32.101c-3.055 0-5.514 2.449-5.514 5.469 0 3.027 2.459 5.476 5.514 5.476h32.101c3.047 0 5.521 2.462 5.521 5.495 0 3.031-2.475 5.5-5.521 5.5h-146.24c-3.047 0-5.526-2.469-5.526-5.5 0-3.032 2.479-5.495 5.526-5.495h79.873c3.045 0 5.511-2.449 5.511-5.476 0-3.024-2.477-5.469-5.511-5.469h-79.873c-9.116 0-16.541 7.371-16.541 16.439 0 9.071 7.424 16.445 16.541 16.445h146.24c9.115 0 16.536-7.374 16.536-16.445 0-9.068-7.421-16.439-16.536-16.439z"/>
</svg>
